solid OpenSCAD_Model
  facet normal 1 -0 0
    outer loop
      vertex -16 190 131
      vertex -16 221 106
      vertex -16 221 131
    endloop
  endfacet
  facet normal 1 0 0
    outer loop
      vertex -16 221 106
      vertex -16 190 131
      vertex -16 190 106
    endloop
  endfacet
  facet normal 0 0 -1
    outer loop
      vertex -16 190 131
      vertex 16 221 131
      vertex 16 190 131
    endloop
  endfacet
  facet normal -0 0 -1
    outer loop
      vertex 16 221 131
      vertex -16 190 131
      vertex -16 221 131
    endloop
  endfacet
  facet normal -1 0 0
    outer loop
      vertex 16 190 106
      vertex 16 221 131
      vertex 16 221 106
    endloop
  endfacet
  facet normal -1 -0 0
    outer loop
      vertex 16 221 131
      vertex 16 190 106
      vertex 16 190 131
    endloop
  endfacet
  facet normal 0 0 1
    outer loop
      vertex 16 221 106
      vertex 8 206.5 106
      vertex 16 190 106
    endloop
  endfacet
  facet normal 0 0 1
    outer loop
      vertex 16 221 106
      vertex 7.82518 208.163 106
      vertex 8 206.5 106
    endloop
  endfacet
  facet normal 0 0 1
    outer loop
      vertex 16 221 106
      vertex 7.30836 209.754 106
      vertex 7.82518 208.163 106
    endloop
  endfacet
  facet normal 0 0 1
    outer loop
      vertex 16 221 106
      vertex 6.47214 211.202 106
      vertex 7.30836 209.754 106
    endloop
  endfacet
  facet normal 0 0 1
    outer loop
      vertex 16 221 106
      vertex 5.35304 212.445 106
      vertex 6.47214 211.202 106
    endloop
  endfacet
  facet normal 0 0 1
    outer loop
      vertex 16 221 106
      vertex 4 213.428 106
      vertex 5.35304 212.445 106
    endloop
  endfacet
  facet normal 0 0 1
    outer loop
      vertex 16 221 106
      vertex 2.47214 214.108 106
      vertex 4 213.428 106
    endloop
  endfacet
  facet normal 0 0 1
    outer loop
      vertex 16 221 106
      vertex 0.836227 214.456 106
      vertex 2.47214 214.108 106
    endloop
  endfacet
  facet normal 0 0 1
    outer loop
      vertex 16 221 106
      vertex -0.836228 214.456 106
      vertex 0.836227 214.456 106
    endloop
  endfacet
  facet normal -0 0 1
    outer loop
      vertex -16 221 106
      vertex -0.836228 214.456 106
      vertex 16 221 106
    endloop
  endfacet
  facet normal 0 0 1
    outer loop
      vertex -7.82518 208.163 106
      vertex -16 221 106
      vertex -8 206.5 106
    endloop
  endfacet
  facet normal 0 0 1
    outer loop
      vertex -7.30836 209.754 106
      vertex -16 221 106
      vertex -7.82518 208.163 106
    endloop
  endfacet
  facet normal 0 0 1
    outer loop
      vertex -6.47214 211.202 106
      vertex -16 221 106
      vertex -7.30836 209.754 106
    endloop
  endfacet
  facet normal 0 0 1
    outer loop
      vertex -5.35305 212.445 106
      vertex -16 221 106
      vertex -6.47214 211.202 106
    endloop
  endfacet
  facet normal 0 0 1
    outer loop
      vertex -4 213.428 106
      vertex -16 221 106
      vertex -5.35305 212.445 106
    endloop
  endfacet
  facet normal 0 0 1
    outer loop
      vertex -2.47214 214.108 106
      vertex -16 221 106
      vertex -4 213.428 106
    endloop
  endfacet
  facet normal 0 0 1
    outer loop
      vertex -0.836228 214.456 106
      vertex -16 221 106
      vertex -2.47214 214.108 106
    endloop
  endfacet
  facet normal -0 0 1
    outer loop
      vertex 7.82518 204.837 106
      vertex 16 190 106
      vertex 8 206.5 106
    endloop
  endfacet
  facet normal -0 0 1
    outer loop
      vertex 7.30836 203.246 106
      vertex 16 190 106
      vertex 7.82518 204.837 106
    endloop
  endfacet
  facet normal -0 0 1
    outer loop
      vertex 6.47214 201.798 106
      vertex 16 190 106
      vertex 7.30836 203.246 106
    endloop
  endfacet
  facet normal -0 0 1
    outer loop
      vertex 5.35304 200.555 106
      vertex 16 190 106
      vertex 6.47214 201.798 106
    endloop
  endfacet
  facet normal -0 0 1
    outer loop
      vertex 4 199.572 106
      vertex 16 190 106
      vertex 5.35304 200.555 106
    endloop
  endfacet
  facet normal -0 0 1
    outer loop
      vertex 2.47214 198.892 106
      vertex 16 190 106
      vertex 4 199.572 106
    endloop
  endfacet
  facet normal -0 0 1
    outer loop
      vertex 0.836227 198.544 106
      vertex 16 190 106
      vertex 2.47214 198.892 106
    endloop
  endfacet
  facet normal -0 0 1
    outer loop
      vertex -0.836228 198.544 106
      vertex 16 190 106
      vertex 0.836227 198.544 106
    endloop
  endfacet
  facet normal 0 0 1
    outer loop
      vertex -16 190 106
      vertex -0.836228 198.544 106
      vertex -2.47214 198.892 106
    endloop
  endfacet
  facet normal 0 0 1
    outer loop
      vertex -16 190 106
      vertex -2.47214 198.892 106
      vertex -4 199.572 106
    endloop
  endfacet
  facet normal 0 0 1
    outer loop
      vertex -16 190 106
      vertex -8 206.5 106
      vertex -16 221 106
    endloop
  endfacet
  facet normal 0 0 1
    outer loop
      vertex -8 206.5 106
      vertex -16 190 106
      vertex -7.82518 204.837 106
    endloop
  endfacet
  facet normal 0 0 1
    outer loop
      vertex -0.836228 198.544 106
      vertex -16 190 106
      vertex 16 190 106
    endloop
  endfacet
  facet normal 0 0 1
    outer loop
      vertex -5.35305 200.555 106
      vertex -16 190 106
      vertex -4 199.572 106
    endloop
  endfacet
  facet normal 0 0 1
    outer loop
      vertex -6.47214 201.798 106
      vertex -16 190 106
      vertex -5.35305 200.555 106
    endloop
  endfacet
  facet normal 0 0 1
    outer loop
      vertex -7.30836 203.246 106
      vertex -16 190 106
      vertex -6.47214 201.798 106
    endloop
  endfacet
  facet normal 0 0 1
    outer loop
      vertex -7.82518 204.837 106
      vertex -16 190 106
      vertex -7.30836 203.246 106
    endloop
  endfacet
  facet normal 0 -1 0
    outer loop
      vertex -20 190 135
      vertex -16 190 131
      vertex 20 190 135
    endloop
  endfacet
  facet normal 0 -1 0
    outer loop
      vertex -20 190 122.5
      vertex -16 190 131
      vertex -20 190 135
    endloop
  endfacet
  facet normal 0 -1 0
    outer loop
      vertex -20 190 116.5
      vertex -16 190 131
      vertex -20 190 122.5
    endloop
  endfacet
  facet normal 0 -1 0
    outer loop
      vertex -20 190 116.5
      vertex -16 190 106
      vertex -16 190 131
    endloop
  endfacet
  facet normal 0 -1 -0
    outer loop
      vertex -16 190 106
      vertex -20 190 102
      vertex 16 190 106
    endloop
  endfacet
  facet normal 0 -1 0
    outer loop
      vertex -20 190 102
      vertex -16 190 106
      vertex -20 190 116.5
    endloop
  endfacet
  facet normal 0 -1 0
    outer loop
      vertex 16 190 131
      vertex 20 190 135
      vertex -16 190 131
    endloop
  endfacet
  facet normal 0 -1 0
    outer loop
      vertex 16 190 106
      vertex 20 190 135
      vertex 16 190 131
    endloop
  endfacet
  facet normal 0 -1 0
    outer loop
      vertex 16 190 106
      vertex 20 190 102
      vertex 20 190 135
    endloop
  endfacet
  facet normal 0 -1 0
    outer loop
      vertex 20 190 102
      vertex 16 190 106
      vertex -20 190 102
    endloop
  endfacet
  facet normal 0 -1 0
    outer loop
      vertex -16 221 106
      vertex 16 221 131
      vertex -16 221 131
    endloop
  endfacet
  facet normal 0 -1 -0
    outer loop
      vertex 16 221 131
      vertex -16 221 106
      vertex 16 221 106
    endloop
  endfacet
  facet normal 0 0 -1
    outer loop
      vertex 20 190 102
      vertex 8 206.5 102
      vertex 20 225 102
    endloop
  endfacet
  facet normal 0 0 -1
    outer loop
      vertex 20 190 102
      vertex 7.82518 204.837 102
      vertex 8 206.5 102
    endloop
  endfacet
  facet normal 0 0 -1
    outer loop
      vertex 20 190 102
      vertex 7.30836 203.246 102
      vertex 7.82518 204.837 102
    endloop
  endfacet
  facet normal 0 0 -1
    outer loop
      vertex 20 190 102
      vertex 6.47214 201.798 102
      vertex 7.30836 203.246 102
    endloop
  endfacet
  facet normal 0 0 -1
    outer loop
      vertex 20 190 102
      vertex 5.35304 200.555 102
      vertex 6.47214 201.798 102
    endloop
  endfacet
  facet normal 0 0 -1
    outer loop
      vertex 20 190 102
      vertex 4 199.572 102
      vertex 5.35304 200.555 102
    endloop
  endfacet
  facet normal 0 0 -1
    outer loop
      vertex 20 190 102
      vertex 2.47214 198.892 102
      vertex 4 199.572 102
    endloop
  endfacet
  facet normal 0 0 -1
    outer loop
      vertex 20 190 102
      vertex 0.836227 198.544 102
      vertex 2.47214 198.892 102
    endloop
  endfacet
  facet normal 0 0 -1
    outer loop
      vertex 20 190 102
      vertex -0.836228 198.544 102
      vertex 0.836227 198.544 102
    endloop
  endfacet
  facet normal 0 0 -1
    outer loop
      vertex -20 190 102
      vertex -0.836228 198.544 102
      vertex 20 190 102
    endloop
  endfacet
  facet normal -0 0 -1
    outer loop
      vertex -7.82518 204.837 102
      vertex -20 190 102
      vertex -8 206.5 102
    endloop
  endfacet
  facet normal -0 0 -1
    outer loop
      vertex -7.30836 203.246 102
      vertex -20 190 102
      vertex -7.82518 204.837 102
    endloop
  endfacet
  facet normal -0 0 -1
    outer loop
      vertex -6.47214 201.798 102
      vertex -20 190 102
      vertex -7.30836 203.246 102
    endloop
  endfacet
  facet normal -0 0 -1
    outer loop
      vertex -5.35305 200.555 102
      vertex -20 190 102
      vertex -6.47214 201.798 102
    endloop
  endfacet
  facet normal -0 0 -1
    outer loop
      vertex -4 199.572 102
      vertex -20 190 102
      vertex -5.35305 200.555 102
    endloop
  endfacet
  facet normal -0 0 -1
    outer loop
      vertex -2.47214 198.892 102
      vertex -20 190 102
      vertex -4 199.572 102
    endloop
  endfacet
  facet normal -0 0 -1
    outer loop
      vertex -0.836228 198.544 102
      vertex -20 190 102
      vertex -2.47214 198.892 102
    endloop
  endfacet
  facet normal 0 0 -1
    outer loop
      vertex 7.82518 208.163 102
      vertex 20 225 102
      vertex 8 206.5 102
    endloop
  endfacet
  facet normal 0 0 -1
    outer loop
      vertex 7.30836 209.754 102
      vertex 20 225 102
      vertex 7.82518 208.163 102
    endloop
  endfacet
  facet normal 0 0 -1
    outer loop
      vertex 6.47214 211.202 102
      vertex 20 225 102
      vertex 7.30836 209.754 102
    endloop
  endfacet
  facet normal 0 0 -1
    outer loop
      vertex 5.35304 212.445 102
      vertex 20 225 102
      vertex 6.47214 211.202 102
    endloop
  endfacet
  facet normal 0 0 -1
    outer loop
      vertex 4 213.428 102
      vertex 20 225 102
      vertex 5.35304 212.445 102
    endloop
  endfacet
  facet normal 0 0 -1
    outer loop
      vertex 2.47214 214.108 102
      vertex 20 225 102
      vertex 4 213.428 102
    endloop
  endfacet
  facet normal 0 0 -1
    outer loop
      vertex 0.836227 214.456 102
      vertex 20 225 102
      vertex 2.47214 214.108 102
    endloop
  endfacet
  facet normal 0 0 -1
    outer loop
      vertex -0.836228 214.456 102
      vertex 20 225 102
      vertex 0.836227 214.456 102
    endloop
  endfacet
  facet normal 0 0 -1
    outer loop
      vertex -20 225 102
      vertex -0.836228 214.456 102
      vertex -2.47214 214.108 102
    endloop
  endfacet
  facet normal 0 0 -1
    outer loop
      vertex -20 225 102
      vertex -2.47214 214.108 102
      vertex -4 213.428 102
    endloop
  endfacet
  facet normal 0 0 -1
    outer loop
      vertex -20 225 102
      vertex -8 206.5 102
      vertex -20 190 102
    endloop
  endfacet
  facet normal 0 0 -1
    outer loop
      vertex -8 206.5 102
      vertex -20 225 102
      vertex -7.82518 208.163 102
    endloop
  endfacet
  facet normal 0 0 -1
    outer loop
      vertex -7.82518 208.163 102
      vertex -20 225 102
      vertex -7.30836 209.754 102
    endloop
  endfacet
  facet normal 0 0 -1
    outer loop
      vertex -0.836228 214.456 102
      vertex -20 225 102
      vertex 20 225 102
    endloop
  endfacet
  facet normal 0 0 -1
    outer loop
      vertex -5.35305 212.445 102
      vertex -20 225 102
      vertex -4 213.428 102
    endloop
  endfacet
  facet normal 0 0 -1
    outer loop
      vertex -6.47214 211.202 102
      vertex -20 225 102
      vertex -5.35305 212.445 102
    endloop
  endfacet
  facet normal 0 0 -1
    outer loop
      vertex -7.30836 209.754 102
      vertex -20 225 102
      vertex -6.47214 211.202 102
    endloop
  endfacet
  facet normal -0.406738 -0.913545 0
    outer loop
      vertex 2.47214 214.108 102
      vertex 4 213.428 106
      vertex 2.47214 214.108 106
    endloop
  endfacet
  facet normal -0.406738 -0.913545 -0
    outer loop
      vertex 4 213.428 106
      vertex 2.47214 214.108 102
      vertex 4 213.428 102
    endloop
  endfacet
  facet normal 0.994522 -0.104528 0
    outer loop
      vertex -8 206.5 106
      vertex -7.82518 208.163 102
      vertex -7.82518 208.163 106
    endloop
  endfacet
  facet normal 0.994522 -0.104528 0
    outer loop
      vertex -7.82518 208.163 102
      vertex -8 206.5 106
      vertex -8 206.5 102
    endloop
  endfacet
  facet normal -0.994522 0.104529 0
    outer loop
      vertex 7.82518 204.837 102
      vertex 8 206.5 106
      vertex 8 206.5 102
    endloop
  endfacet
  facet normal -0.994522 0.104529 0
    outer loop
      vertex 8 206.5 106
      vertex 7.82518 204.837 102
      vertex 7.82518 204.837 106
    endloop
  endfacet
  facet normal 0.207908 0.978148 -0
    outer loop
      vertex -0.836228 198.544 102
      vertex -2.47214 198.892 106
      vertex -0.836228 198.544 106
    endloop
  endfacet
  facet normal 0.207908 0.978148 0
    outer loop
      vertex -2.47214 198.892 106
      vertex -0.836228 198.544 102
      vertex -2.47214 198.892 102
    endloop
  endfacet
  facet normal 0.406738 -0.913545 0
    outer loop
      vertex -4 213.428 102
      vertex -2.47214 214.108 106
      vertex -4 213.428 106
    endloop
  endfacet
  facet normal 0.406738 -0.913545 0
    outer loop
      vertex -2.47214 214.108 106
      vertex -4 213.428 102
      vertex -2.47214 214.108 102
    endloop
  endfacet
  facet normal 0.951056 -0.309018 0
    outer loop
      vertex -7.82518 208.163 106
      vertex -7.30836 209.754 102
      vertex -7.30836 209.754 106
    endloop
  endfacet
  facet normal 0.951056 -0.309018 0
    outer loop
      vertex -7.30836 209.754 102
      vertex -7.82518 208.163 106
      vertex -7.82518 208.163 102
    endloop
  endfacet
  facet normal 0.406738 0.913545 -0
    outer loop
      vertex -2.47214 198.892 102
      vertex -4 199.572 106
      vertex -2.47214 198.892 106
    endloop
  endfacet
  facet normal 0.406738 0.913545 0
    outer loop
      vertex -4 199.572 106
      vertex -2.47214 198.892 102
      vertex -4 199.572 102
    endloop
  endfacet
  facet normal -0.951056 -0.309018 0
    outer loop
      vertex 7.82518 208.163 102
      vertex 7.30836 209.754 106
      vertex 7.30836 209.754 102
    endloop
  endfacet
  facet normal -0.951056 -0.309018 0
    outer loop
      vertex 7.30836 209.754 106
      vertex 7.82518 208.163 102
      vertex 7.82518 208.163 106
    endloop
  endfacet
  facet normal -0.866026 -0.499998 0
    outer loop
      vertex 7.30836 209.754 102
      vertex 6.47214 211.202 106
      vertex 6.47214 211.202 102
    endloop
  endfacet
  facet normal -0.866026 -0.499998 0
    outer loop
      vertex 6.47214 211.202 106
      vertex 7.30836 209.754 102
      vertex 7.30836 209.754 106
    endloop
  endfacet
  facet normal -0.743144 -0.669131 0
    outer loop
      vertex 6.47214 211.202 102
      vertex 5.35304 212.445 106
      vertex 5.35304 212.445 102
    endloop
  endfacet
  facet normal -0.743144 -0.669131 0
    outer loop
      vertex 5.35304 212.445 106
      vertex 6.47214 211.202 102
      vertex 6.47214 211.202 106
    endloop
  endfacet
  facet normal -0.587786 -0.809016 0
    outer loop
      vertex 4 213.428 102
      vertex 5.35304 212.445 106
      vertex 4 213.428 106
    endloop
  endfacet
  facet normal -0.587786 -0.809016 -0
    outer loop
      vertex 5.35304 212.445 106
      vertex 4 213.428 102
      vertex 5.35304 212.445 102
    endloop
  endfacet
  facet normal 0 -1 0
    outer loop
      vertex -0.836228 214.456 102
      vertex 0.836227 214.456 106
      vertex -0.836228 214.456 106
    endloop
  endfacet
  facet normal 0 -1 -0
    outer loop
      vertex 0.836227 214.456 106
      vertex -0.836228 214.456 102
      vertex 0.836227 214.456 102
    endloop
  endfacet
  facet normal 0.994522 0.104528 0
    outer loop
      vertex -7.82518 204.837 106
      vertex -8 206.5 102
      vertex -8 206.5 106
    endloop
  endfacet
  facet normal 0.994522 0.104528 0
    outer loop
      vertex -8 206.5 102
      vertex -7.82518 204.837 106
      vertex -7.82518 204.837 102
    endloop
  endfacet
  facet normal 0.866026 -0.499998 0
    outer loop
      vertex -7.30836 209.754 106
      vertex -6.47214 211.202 102
      vertex -6.47214 211.202 106
    endloop
  endfacet
  facet normal 0.866026 -0.499998 0
    outer loop
      vertex -6.47214 211.202 102
      vertex -7.30836 209.754 106
      vertex -7.30836 209.754 102
    endloop
  endfacet
  facet normal 0.587786 -0.809016 0
    outer loop
      vertex -5.35305 212.445 102
      vertex -4 213.428 106
      vertex -5.35305 212.445 106
    endloop
  endfacet
  facet normal 0.587786 -0.809016 0
    outer loop
      vertex -4 213.428 106
      vertex -5.35305 212.445 102
      vertex -4 213.428 102
    endloop
  endfacet
  facet normal 0.207908 -0.978148 0
    outer loop
      vertex -2.47214 214.108 102
      vertex -0.836228 214.456 106
      vertex -2.47214 214.108 106
    endloop
  endfacet
  facet normal 0.207908 -0.978148 0
    outer loop
      vertex -0.836228 214.456 106
      vertex -2.47214 214.108 102
      vertex -0.836228 214.456 102
    endloop
  endfacet
  facet normal 0.743144 -0.669131 0
    outer loop
      vertex -6.47214 211.202 106
      vertex -5.35305 212.445 102
      vertex -5.35305 212.445 106
    endloop
  endfacet
  facet normal 0.743144 -0.669131 0
    outer loop
      vertex -5.35305 212.445 102
      vertex -6.47214 211.202 106
      vertex -6.47214 211.202 102
    endloop
  endfacet
  facet normal -0.994522 -0.104529 0
    outer loop
      vertex 8 206.5 102
      vertex 7.82518 208.163 106
      vertex 7.82518 208.163 102
    endloop
  endfacet
  facet normal -0.994522 -0.104529 0
    outer loop
      vertex 7.82518 208.163 106
      vertex 8 206.5 102
      vertex 8 206.5 106
    endloop
  endfacet
  facet normal -0.207908 0.978148 0
    outer loop
      vertex 2.47214 198.892 102
      vertex 0.836227 198.544 106
      vertex 2.47214 198.892 106
    endloop
  endfacet
  facet normal -0.207908 0.978148 0
    outer loop
      vertex 0.836227 198.544 106
      vertex 2.47214 198.892 102
      vertex 0.836227 198.544 102
    endloop
  endfacet
  facet normal -0.866026 0.499998 0
    outer loop
      vertex 6.47214 201.798 102
      vertex 7.30836 203.246 106
      vertex 7.30836 203.246 102
    endloop
  endfacet
  facet normal -0.866026 0.499998 0
    outer loop
      vertex 7.30836 203.246 106
      vertex 6.47214 201.798 102
      vertex 6.47214 201.798 106
    endloop
  endfacet
  facet normal -0.951056 0.309018 0
    outer loop
      vertex 7.30836 203.246 102
      vertex 7.82518 204.837 106
      vertex 7.82518 204.837 102
    endloop
  endfacet
  facet normal -0.951056 0.309018 0
    outer loop
      vertex 7.82518 204.837 106
      vertex 7.30836 203.246 102
      vertex 7.30836 203.246 106
    endloop
  endfacet
  facet normal -0.406738 0.913545 0
    outer loop
      vertex 4 199.572 102
      vertex 2.47214 198.892 106
      vertex 4 199.572 106
    endloop
  endfacet
  facet normal -0.406738 0.913545 0
    outer loop
      vertex 2.47214 198.892 106
      vertex 4 199.572 102
      vertex 2.47214 198.892 102
    endloop
  endfacet
  facet normal -0.587786 0.809016 0
    outer loop
      vertex 5.35304 200.555 102
      vertex 4 199.572 106
      vertex 5.35304 200.555 106
    endloop
  endfacet
  facet normal -0.587786 0.809016 0
    outer loop
      vertex 4 199.572 106
      vertex 5.35304 200.555 102
      vertex 4 199.572 102
    endloop
  endfacet
  facet normal 0 1 -0
    outer loop
      vertex 0.836227 198.544 102
      vertex -0.836228 198.544 106
      vertex 0.836227 198.544 106
    endloop
  endfacet
  facet normal 0 1 0
    outer loop
      vertex -0.836228 198.544 106
      vertex 0.836227 198.544 102
      vertex -0.836228 198.544 102
    endloop
  endfacet
  facet normal 0.743144 0.669131 0
    outer loop
      vertex -5.35305 200.555 106
      vertex -6.47214 201.798 102
      vertex -6.47214 201.798 106
    endloop
  endfacet
  facet normal 0.743144 0.669131 0
    outer loop
      vertex -6.47214 201.798 102
      vertex -5.35305 200.555 106
      vertex -5.35305 200.555 102
    endloop
  endfacet
  facet normal 0.951056 0.309018 0
    outer loop
      vertex -7.30836 203.246 106
      vertex -7.82518 204.837 102
      vertex -7.82518 204.837 106
    endloop
  endfacet
  facet normal 0.951056 0.309018 0
    outer loop
      vertex -7.82518 204.837 102
      vertex -7.30836 203.246 106
      vertex -7.30836 203.246 102
    endloop
  endfacet
  facet normal -0.207908 -0.978148 0
    outer loop
      vertex 0.836227 214.456 102
      vertex 2.47214 214.108 106
      vertex 0.836227 214.456 106
    endloop
  endfacet
  facet normal -0.207908 -0.978148 -0
    outer loop
      vertex 2.47214 214.108 106
      vertex 0.836227 214.456 102
      vertex 2.47214 214.108 102
    endloop
  endfacet
  facet normal -0.743144 0.669131 0
    outer loop
      vertex 5.35304 200.555 102
      vertex 6.47214 201.798 106
      vertex 6.47214 201.798 102
    endloop
  endfacet
  facet normal -0.743144 0.669131 0
    outer loop
      vertex 6.47214 201.798 106
      vertex 5.35304 200.555 102
      vertex 5.35304 200.555 106
    endloop
  endfacet
  facet normal 0.866026 0.499998 0
    outer loop
      vertex -6.47214 201.798 106
      vertex -7.30836 203.246 102
      vertex -7.30836 203.246 106
    endloop
  endfacet
  facet normal 0.866026 0.499998 0
    outer loop
      vertex -7.30836 203.246 102
      vertex -6.47214 201.798 106
      vertex -6.47214 201.798 102
    endloop
  endfacet
  facet normal 0.587786 0.809016 -0
    outer loop
      vertex -4 199.572 102
      vertex -5.35305 200.555 106
      vertex -4 199.572 106
    endloop
  endfacet
  facet normal 0.587786 0.809016 0
    outer loop
      vertex -5.35305 200.555 106
      vertex -4 199.572 102
      vertex -5.35305 200.555 102
    endloop
  endfacet
  facet normal 1 -0 0
    outer loop
      vertex -20 184 122.5
      vertex -20 190 116.5
      vertex -20 190 122.5
    endloop
  endfacet
  facet normal 1 0 0
    outer loop
      vertex -20 190 116.5
      vertex -20 184 122.5
      vertex -20 184 116.5
    endloop
  endfacet
  facet normal -1 0 0
    outer loop
      vertex -20 225 102
      vertex -20 199 116.5
      vertex -20 225 135
    endloop
  endfacet
  facet normal -1 0 0
    outer loop
      vertex -20 190 102
      vertex -20 199 116.5
      vertex -20 225 102
    endloop
  endfacet
  facet normal -1 -0 0
    outer loop
      vertex -20 199 116.5
      vertex -20 190 102
      vertex -20 190 116.5
    endloop
  endfacet
  facet normal -1 0 0
    outer loop
      vertex -20 199 122.5
      vertex -20 225 135
      vertex -20 199 116.5
    endloop
  endfacet
  facet normal -1 0 0
    outer loop
      vertex -20 190 135
      vertex -20 199 122.5
      vertex -20 190 122.5
    endloop
  endfacet
  facet normal -1 0 0
    outer loop
      vertex -20 199 122.5
      vertex -20 190 135
      vertex -20 225 135
    endloop
  endfacet
  facet normal -0 0 1
    outer loop
      vertex -20 225 135
      vertex 20 190 135
      vertex 20 225 135
    endloop
  endfacet
  facet normal 0 0 1
    outer loop
      vertex 20 190 135
      vertex -20 225 135
      vertex -20 190 135
    endloop
  endfacet
  facet normal 1 -0 0
    outer loop
      vertex 20 190 135
      vertex 20 225 102
      vertex 20 225 135
    endloop
  endfacet
  facet normal 1 0 0
    outer loop
      vertex 20 225 102
      vertex 20 190 135
      vertex 20 190 102
    endloop
  endfacet
  facet normal 0 1 -0
    outer loop
      vertex 20 225 102
      vertex -20 225 135
      vertex 20 225 135
    endloop
  endfacet
  facet normal 0 1 0
    outer loop
      vertex -20 225 135
      vertex 20 225 102
      vertex -20 225 102
    endloop
  endfacet
  facet normal -1 0 0
    outer loop
      vertex -24 184 116.5
      vertex -24 199 122.5
      vertex -24 199 116.5
    endloop
  endfacet
  facet normal -1 -0 0
    outer loop
      vertex -24 199 122.5
      vertex -24 184 116.5
      vertex -24 184 122.5
    endloop
  endfacet
  facet normal -0 0 1
    outer loop
      vertex -24 199 122.5
      vertex -20 190 122.5
      vertex -20 199 122.5
    endloop
  endfacet
  facet normal 0 -0 1
    outer loop
      vertex -21 187 122.5
      vertex -20 190 122.5
      vertex -21.0219 187.208 122.5
    endloop
  endfacet
  facet normal 0 0 1
    outer loop
      vertex -20 190 122.5
      vertex -21 187 122.5
      vertex -20 184 122.5
    endloop
  endfacet
  facet normal 0 0 1
    outer loop
      vertex -20 190 122.5
      vertex -21.0865 187.407 122.5
      vertex -21.0219 187.208 122.5
    endloop
  endfacet
  facet normal 0 0 1
    outer loop
      vertex -20 190 122.5
      vertex -21.191 187.588 122.5
      vertex -21.0865 187.407 122.5
    endloop
  endfacet
  facet normal 0 0 1
    outer loop
      vertex -20 190 122.5
      vertex -21.3309 187.743 122.5
      vertex -21.191 187.588 122.5
    endloop
  endfacet
  facet normal 0 0 1
    outer loop
      vertex -20 190 122.5
      vertex -21.5 187.866 122.5
      vertex -21.3309 187.743 122.5
    endloop
  endfacet
  facet normal 0 0 1
    outer loop
      vertex -20 190 122.5
      vertex -21.691 187.951 122.5
      vertex -21.5 187.866 122.5
    endloop
  endfacet
  facet normal 0 0 1
    outer loop
      vertex -20 190 122.5
      vertex -21.8955 187.995 122.5
      vertex -21.691 187.951 122.5
    endloop
  endfacet
  facet normal 0 0 1
    outer loop
      vertex -20 190 122.5
      vertex -22.1045 187.995 122.5
      vertex -21.8955 187.995 122.5
    endloop
  endfacet
  facet normal 0 -0 1
    outer loop
      vertex -22.5 187.866 122.5
      vertex -20 190 122.5
      vertex -24 199 122.5
    endloop
  endfacet
  facet normal 0 0 1
    outer loop
      vertex -20 190 122.5
      vertex -22.309 187.951 122.5
      vertex -22.1045 187.995 122.5
    endloop
  endfacet
  facet normal 0 0 1
    outer loop
      vertex -20 190 122.5
      vertex -22.5 187.866 122.5
      vertex -22.309 187.951 122.5
    endloop
  endfacet
  facet normal 0 0 1
    outer loop
      vertex -22.5 187.866 122.5
      vertex -24 199 122.5
      vertex -22.6691 187.743 122.5
    endloop
  endfacet
  facet normal 0 0 1
    outer loop
      vertex -22.6691 187.743 122.5
      vertex -24 199 122.5
      vertex -22.809 187.588 122.5
    endloop
  endfacet
  facet normal 0 0 1
    outer loop
      vertex -22.809 187.588 122.5
      vertex -24 199 122.5
      vertex -22.9135 187.407 122.5
    endloop
  endfacet
  facet normal 0 0 1
    outer loop
      vertex -24 184 122.5
      vertex -22.9781 187.208 122.5
      vertex -24 199 122.5
    endloop
  endfacet
  facet normal 0 0 1
    outer loop
      vertex -22.9135 187.407 122.5
      vertex -24 199 122.5
      vertex -22.9781 187.208 122.5
    endloop
  endfacet
  facet normal -0 0 1
    outer loop
      vertex -21.0219 186.792 122.5
      vertex -20 184 122.5
      vertex -21 187 122.5
    endloop
  endfacet
  facet normal -0 0 1
    outer loop
      vertex -21.0865 186.593 122.5
      vertex -20 184 122.5
      vertex -21.0219 186.792 122.5
    endloop
  endfacet
  facet normal -0 0 1
    outer loop
      vertex -21.191 186.412 122.5
      vertex -20 184 122.5
      vertex -21.0865 186.593 122.5
    endloop
  endfacet
  facet normal -0 0 1
    outer loop
      vertex -21.3309 186.257 122.5
      vertex -20 184 122.5
      vertex -21.191 186.412 122.5
    endloop
  endfacet
  facet normal -0 0 1
    outer loop
      vertex -21.5 186.134 122.5
      vertex -20 184 122.5
      vertex -21.3309 186.257 122.5
    endloop
  endfacet
  facet normal -0 0 1
    outer loop
      vertex -21.691 186.049 122.5
      vertex -20 184 122.5
      vertex -21.5 186.134 122.5
    endloop
  endfacet
  facet normal -0 0 1
    outer loop
      vertex -21.8955 186.005 122.5
      vertex -20 184 122.5
      vertex -21.691 186.049 122.5
    endloop
  endfacet
  facet normal -0 0 1
    outer loop
      vertex -22.1045 186.005 122.5
      vertex -20 184 122.5
      vertex -21.8955 186.005 122.5
    endloop
  endfacet
  facet normal 0 0 1
    outer loop
      vertex -24 184 122.5
      vertex -22.1045 186.005 122.5
      vertex -22.309 186.049 122.5
    endloop
  endfacet
  facet normal 0 0 1
    outer loop
      vertex -24 184 122.5
      vertex -22.309 186.049 122.5
      vertex -22.5 186.134 122.5
    endloop
  endfacet
  facet normal 0 0 1
    outer loop
      vertex -24 184 122.5
      vertex -22.5 186.134 122.5
      vertex -22.6691 186.257 122.5
    endloop
  endfacet
  facet normal 0 0 1
    outer loop
      vertex -22.1045 186.005 122.5
      vertex -24 184 122.5
      vertex -20 184 122.5
    endloop
  endfacet
  facet normal 0 0 1
    outer loop
      vertex -22.809 186.412 122.5
      vertex -24 184 122.5
      vertex -22.6691 186.257 122.5
    endloop
  endfacet
  facet normal 0 0 1
    outer loop
      vertex -22.9135 186.593 122.5
      vertex -24 184 122.5
      vertex -22.809 186.412 122.5
    endloop
  endfacet
  facet normal 0 0 1
    outer loop
      vertex -22.9781 186.792 122.5
      vertex -24 184 122.5
      vertex -22.9135 186.593 122.5
    endloop
  endfacet
  facet normal 0 0 1
    outer loop
      vertex -23 187 122.5
      vertex -24 184 122.5
      vertex -22.9781 186.792 122.5
    endloop
  endfacet
  facet normal 0 0 1
    outer loop
      vertex -22.9781 187.208 122.5
      vertex -24 184 122.5
      vertex -23 187 122.5
    endloop
  endfacet
  facet normal 0 1 -0
    outer loop
      vertex -20 199 116.5
      vertex -24 199 122.5
      vertex -20 199 122.5
    endloop
  endfacet
  facet normal 0 1 0
    outer loop
      vertex -24 199 122.5
      vertex -20 199 116.5
      vertex -24 199 116.5
    endloop
  endfacet
  facet normal 0 0 -1
    outer loop
      vertex -21 187 116.5
      vertex -20 190 116.5
      vertex -20 184 116.5
    endloop
  endfacet
  facet normal 0 0 -1
    outer loop
      vertex -20 190 116.5
      vertex -21 187 116.5
      vertex -21.0219 187.208 116.5
    endloop
  endfacet
  facet normal 0 0 -1
    outer loop
      vertex -20 184 116.5
      vertex -21.0219 186.792 116.5
      vertex -21 187 116.5
    endloop
  endfacet
  facet normal 0 0 -1
    outer loop
      vertex -20 184 116.5
      vertex -21.0865 186.593 116.5
      vertex -21.0219 186.792 116.5
    endloop
  endfacet
  facet normal 0 0 -1
    outer loop
      vertex -20 184 116.5
      vertex -21.191 186.412 116.5
      vertex -21.0865 186.593 116.5
    endloop
  endfacet
  facet normal 0 0 -1
    outer loop
      vertex -20 184 116.5
      vertex -21.3309 186.257 116.5
      vertex -21.191 186.412 116.5
    endloop
  endfacet
  facet normal 0 0 -1
    outer loop
      vertex -20 184 116.5
      vertex -21.5 186.134 116.5
      vertex -21.3309 186.257 116.5
    endloop
  endfacet
  facet normal 0 0 -1
    outer loop
      vertex -20 184 116.5
      vertex -21.691 186.049 116.5
      vertex -21.5 186.134 116.5
    endloop
  endfacet
  facet normal 0 0 -1
    outer loop
      vertex -20 184 116.5
      vertex -21.8955 186.005 116.5
      vertex -21.691 186.049 116.5
    endloop
  endfacet
  facet normal 0 0 -1
    outer loop
      vertex -20 184 116.5
      vertex -22.1045 186.005 116.5
      vertex -21.8955 186.005 116.5
    endloop
  endfacet
  facet normal 0 0 -1
    outer loop
      vertex -24 184 116.5
      vertex -22.1045 186.005 116.5
      vertex -20 184 116.5
    endloop
  endfacet
  facet normal -0 0 -1
    outer loop
      vertex -22.1045 186.005 116.5
      vertex -24 184 116.5
      vertex -22.309 186.049 116.5
    endloop
  endfacet
  facet normal -0 0 -1
    outer loop
      vertex -22.309 186.049 116.5
      vertex -24 184 116.5
      vertex -22.5 186.134 116.5
    endloop
  endfacet
  facet normal -0 0 -1
    outer loop
      vertex -22.9781 186.792 116.5
      vertex -24 184 116.5
      vertex -23 187 116.5
    endloop
  endfacet
  facet normal -0 0 -1
    outer loop
      vertex -22.9135 186.593 116.5
      vertex -24 184 116.5
      vertex -22.9781 186.792 116.5
    endloop
  endfacet
  facet normal -0 0 -1
    outer loop
      vertex -22.809 186.412 116.5
      vertex -24 184 116.5
      vertex -22.9135 186.593 116.5
    endloop
  endfacet
  facet normal -0 0 -1
    outer loop
      vertex -22.6691 186.257 116.5
      vertex -24 184 116.5
      vertex -22.809 186.412 116.5
    endloop
  endfacet
  facet normal -0 0 -1
    outer loop
      vertex -22.5 186.134 116.5
      vertex -24 184 116.5
      vertex -22.6691 186.257 116.5
    endloop
  endfacet
  facet normal 0 0 -1
    outer loop
      vertex -21.0865 187.407 116.5
      vertex -20 190 116.5
      vertex -21.0219 187.208 116.5
    endloop
  endfacet
  facet normal 0 0 -1
    outer loop
      vertex -21.191 187.588 116.5
      vertex -20 190 116.5
      vertex -21.0865 187.407 116.5
    endloop
  endfacet
  facet normal 0 0 -1
    outer loop
      vertex -21.3309 187.743 116.5
      vertex -20 190 116.5
      vertex -21.191 187.588 116.5
    endloop
  endfacet
  facet normal 0 0 -1
    outer loop
      vertex -21.5 187.866 116.5
      vertex -20 190 116.5
      vertex -21.3309 187.743 116.5
    endloop
  endfacet
  facet normal 0 0 -1
    outer loop
      vertex -21.691 187.951 116.5
      vertex -20 190 116.5
      vertex -21.5 187.866 116.5
    endloop
  endfacet
  facet normal 0 0 -1
    outer loop
      vertex -21.8955 187.995 116.5
      vertex -20 190 116.5
      vertex -21.691 187.951 116.5
    endloop
  endfacet
  facet normal 0 0 -1
    outer loop
      vertex -22.1045 187.995 116.5
      vertex -20 190 116.5
      vertex -21.8955 187.995 116.5
    endloop
  endfacet
  facet normal 0 0 -1
    outer loop
      vertex -22.309 187.951 116.5
      vertex -20 190 116.5
      vertex -22.1045 187.995 116.5
    endloop
  endfacet
  facet normal 0 0 -1
    outer loop
      vertex -22.5 187.866 116.5
      vertex -20 190 116.5
      vertex -22.309 187.951 116.5
    endloop
  endfacet
  facet normal -0 0 -1
    outer loop
      vertex -20 190 116.5
      vertex -22.5 187.866 116.5
      vertex -24 199 116.5
    endloop
  endfacet
  facet normal 0 0 -1
    outer loop
      vertex -24 199 116.5
      vertex -22.5 187.866 116.5
      vertex -22.6691 187.743 116.5
    endloop
  endfacet
  facet normal 0 0 -1
    outer loop
      vertex -24 199 116.5
      vertex -22.6691 187.743 116.5
      vertex -22.809 187.588 116.5
    endloop
  endfacet
  facet normal 0 0 -1
    outer loop
      vertex -24 199 116.5
      vertex -22.809 187.588 116.5
      vertex -22.9135 187.407 116.5
    endloop
  endfacet
  facet normal 0 0 -1
    outer loop
      vertex -24 199 116.5
      vertex -22.9135 187.407 116.5
      vertex -22.9781 187.208 116.5
    endloop
  endfacet
  facet normal 0 0 -1
    outer loop
      vertex -24 184 116.5
      vertex -22.9781 187.208 116.5
      vertex -23 187 116.5
    endloop
  endfacet
  facet normal 0 0 -1
    outer loop
      vertex -24 199 116.5
      vertex -22.9781 187.208 116.5
      vertex -24 184 116.5
    endloop
  endfacet
  facet normal 0 0 -1
    outer loop
      vertex -20 190 116.5
      vertex -24 199 116.5
      vertex -20 199 116.5
    endloop
  endfacet
  facet normal 0 -1 0
    outer loop
      vertex -24 184 116.5
      vertex -20 184 122.5
      vertex -24 184 122.5
    endloop
  endfacet
  facet normal 0 -1 -0
    outer loop
      vertex -20 184 122.5
      vertex -24 184 116.5
      vertex -20 184 116.5
    endloop
  endfacet
  facet normal -0.994523 -0.104518 0
    outer loop
      vertex -21 187 116.5
      vertex -21.0219 187.208 122.5
      vertex -21.0219 187.208 116.5
    endloop
  endfacet
  facet normal -0.994523 -0.104518 0
    outer loop
      vertex -21.0219 187.208 122.5
      vertex -21 187 116.5
      vertex -21 187 122.5
    endloop
  endfacet
  facet normal 0.994522 -0.104527 0
    outer loop
      vertex -23 187 122.5
      vertex -22.9781 187.208 116.5
      vertex -22.9781 187.208 122.5
    endloop
  endfacet
  facet normal 0.994522 -0.104527 0
    outer loop
      vertex -22.9781 187.208 116.5
      vertex -23 187 122.5
      vertex -23 187 116.5
    endloop
  endfacet
  facet normal 0 -1 0
    outer loop
      vertex -22.1045 187.995 116.5
      vertex -21.8955 187.995 122.5
      vertex -22.1045 187.995 122.5
    endloop
  endfacet
  facet normal 0 -1 -0
    outer loop
      vertex -21.8955 187.995 122.5
      vertex -22.1045 187.995 116.5
      vertex -21.8955 187.995 116.5
    endloop
  endfacet
  facet normal 0 1 -0
    outer loop
      vertex -21.8955 186.005 116.5
      vertex -22.1045 186.005 122.5
      vertex -21.8955 186.005 122.5
    endloop
  endfacet
  facet normal 0 1 0
    outer loop
      vertex -22.1045 186.005 122.5
      vertex -21.8955 186.005 116.5
      vertex -22.1045 186.005 116.5
    endloop
  endfacet
  facet normal -0.587777 -0.809023 0
    outer loop
      vertex -21.5 187.866 116.5
      vertex -21.3309 187.743 122.5
      vertex -21.5 187.866 122.5
    endloop
  endfacet
  facet normal -0.587777 -0.809023 -0
    outer loop
      vertex -21.3309 187.743 122.5
      vertex -21.5 187.866 116.5
      vertex -21.3309 187.743 116.5
    endloop
  endfacet
  facet normal -0.4067 -0.913562 0
    outer loop
      vertex -21.691 187.951 116.5
      vertex -21.5 187.866 122.5
      vertex -21.691 187.951 122.5
    endloop
  endfacet
  facet normal -0.4067 -0.913562 -0
    outer loop
      vertex -21.5 187.866 122.5
      vertex -21.691 187.951 116.5
      vertex -21.5 187.866 116.5
    endloop
  endfacet
  facet normal 0.587781 -0.80902 0
    outer loop
      vertex -22.6691 187.743 116.5
      vertex -22.5 187.866 122.5
      vertex -22.6691 187.743 122.5
    endloop
  endfacet
  facet normal 0.587781 -0.80902 0
    outer loop
      vertex -22.5 187.866 122.5
      vertex -22.6691 187.743 116.5
      vertex -22.5 187.866 116.5
    endloop
  endfacet
  facet normal 0.207943 -0.978141 0
    outer loop
      vertex -22.309 187.951 116.5
      vertex -22.1045 187.995 122.5
      vertex -22.309 187.951 122.5
    endloop
  endfacet
  facet normal 0.207943 -0.978141 0
    outer loop
      vertex -22.1045 187.995 122.5
      vertex -22.309 187.951 116.5
      vertex -22.1045 187.995 116.5
    endloop
  endfacet
  facet normal -0.866022 0.500006 0
    outer loop
      vertex -21.191 186.412 116.5
      vertex -21.0865 186.593 122.5
      vertex -21.0865 186.593 116.5
    endloop
  endfacet
  facet normal -0.866022 0.500006 0
    outer loop
      vertex -21.0865 186.593 122.5
      vertex -21.191 186.412 116.5
      vertex -21.191 186.412 122.5
    endloop
  endfacet
  facet normal -0.866022 -0.500006 0
    outer loop
      vertex -21.0865 187.407 116.5
      vertex -21.191 187.588 122.5
      vertex -21.191 187.588 116.5
    endloop
  endfacet
  facet normal -0.866022 -0.500006 0
    outer loop
      vertex -21.191 187.588 122.5
      vertex -21.0865 187.407 116.5
      vertex -21.0865 187.407 122.5
    endloop
  endfacet
  facet normal -0.951053 -0.309028 0
    outer loop
      vertex -21.0219 187.208 116.5
      vertex -21.0865 187.407 122.5
      vertex -21.0865 187.407 116.5
    endloop
  endfacet
  facet normal -0.951053 -0.309028 0
    outer loop
      vertex -21.0865 187.407 122.5
      vertex -21.0219 187.208 116.5
      vertex -21.0219 187.208 122.5
    endloop
  endfacet
  facet normal -0.74316 -0.669114 0
    outer loop
      vertex -21.191 187.588 116.5
      vertex -21.3309 187.743 122.5
      vertex -21.3309 187.743 116.5
    endloop
  endfacet
  facet normal -0.74316 -0.669114 0
    outer loop
      vertex -21.3309 187.743 122.5
      vertex -21.191 187.588 116.5
      vertex -21.191 187.588 122.5
    endloop
  endfacet
  facet normal -0.207945 -0.978141 0
    outer loop
      vertex -21.8955 187.995 116.5
      vertex -21.691 187.951 122.5
      vertex -21.8955 187.995 122.5
    endloop
  endfacet
  facet normal -0.207945 -0.978141 -0
    outer loop
      vertex -21.691 187.951 122.5
      vertex -21.8955 187.995 116.5
      vertex -21.691 187.951 116.5
    endloop
  endfacet
  facet normal 0.866026 -0.499999 0
    outer loop
      vertex -22.9135 187.407 122.5
      vertex -22.809 187.588 116.5
      vertex -22.809 187.588 122.5
    endloop
  endfacet
  facet normal 0.866026 -0.499999 0
    outer loop
      vertex -22.809 187.588 116.5
      vertex -22.9135 187.407 122.5
      vertex -22.9135 187.407 116.5
    endloop
  endfacet
  facet normal 0.743155 -0.669119 0
    outer loop
      vertex -22.809 187.588 122.5
      vertex -22.6691 187.743 116.5
      vertex -22.6691 187.743 122.5
    endloop
  endfacet
  facet normal 0.743155 -0.669119 0
    outer loop
      vertex -22.6691 187.743 116.5
      vertex -22.809 187.588 122.5
      vertex -22.809 187.588 116.5
    endloop
  endfacet
  facet normal 0.951053 -0.309028 0
    outer loop
      vertex -22.9781 187.208 122.5
      vertex -22.9135 187.407 116.5
      vertex -22.9135 187.407 122.5
    endloop
  endfacet
  facet normal 0.951053 -0.309028 0
    outer loop
      vertex -22.9135 187.407 116.5
      vertex -22.9781 187.208 122.5
      vertex -22.9781 187.208 116.5
    endloop
  endfacet
  facet normal 0.4067 -0.913562 0
    outer loop
      vertex -22.5 187.866 116.5
      vertex -22.309 187.951 122.5
      vertex -22.5 187.866 122.5
    endloop
  endfacet
  facet normal 0.4067 -0.913562 0
    outer loop
      vertex -22.309 187.951 122.5
      vertex -22.5 187.866 116.5
      vertex -22.309 187.951 116.5
    endloop
  endfacet
  facet normal -0.207945 0.978141 0
    outer loop
      vertex -21.691 186.049 116.5
      vertex -21.8955 186.005 122.5
      vertex -21.691 186.049 122.5
    endloop
  endfacet
  facet normal -0.207945 0.978141 0
    outer loop
      vertex -21.8955 186.005 122.5
      vertex -21.691 186.049 116.5
      vertex -21.8955 186.005 116.5
    endloop
  endfacet
  facet normal -0.587777 0.809023 0
    outer loop
      vertex -21.3309 186.257 116.5
      vertex -21.5 186.134 122.5
      vertex -21.3309 186.257 122.5
    endloop
  endfacet
  facet normal -0.587777 0.809023 0
    outer loop
      vertex -21.5 186.134 122.5
      vertex -21.3309 186.257 116.5
      vertex -21.5 186.134 116.5
    endloop
  endfacet
  facet normal -0.74316 0.669114 0
    outer loop
      vertex -21.3309 186.257 116.5
      vertex -21.191 186.412 122.5
      vertex -21.191 186.412 116.5
    endloop
  endfacet
  facet normal -0.74316 0.669114 0
    outer loop
      vertex -21.191 186.412 122.5
      vertex -21.3309 186.257 116.5
      vertex -21.3309 186.257 122.5
    endloop
  endfacet
  facet normal -0.951053 0.309028 0
    outer loop
      vertex -21.0865 186.593 116.5
      vertex -21.0219 186.792 122.5
      vertex -21.0219 186.792 116.5
    endloop
  endfacet
  facet normal -0.951053 0.309028 0
    outer loop
      vertex -21.0219 186.792 122.5
      vertex -21.0865 186.593 116.5
      vertex -21.0865 186.593 122.5
    endloop
  endfacet
  facet normal -0.994523 0.104518 0
    outer loop
      vertex -21.0219 186.792 116.5
      vertex -21 187 122.5
      vertex -21 187 116.5
    endloop
  endfacet
  facet normal -0.994523 0.104518 0
    outer loop
      vertex -21 187 122.5
      vertex -21.0219 186.792 116.5
      vertex -21.0219 186.792 122.5
    endloop
  endfacet
  facet normal 0.866026 0.499999 0
    outer loop
      vertex -22.809 186.412 122.5
      vertex -22.9135 186.593 116.5
      vertex -22.9135 186.593 122.5
    endloop
  endfacet
  facet normal 0.866026 0.499999 0
    outer loop
      vertex -22.9135 186.593 116.5
      vertex -22.809 186.412 122.5
      vertex -22.809 186.412 116.5
    endloop
  endfacet
  facet normal -0.4067 0.913562 0
    outer loop
      vertex -21.5 186.134 116.5
      vertex -21.691 186.049 122.5
      vertex -21.5 186.134 122.5
    endloop
  endfacet
  facet normal -0.4067 0.913562 0
    outer loop
      vertex -21.691 186.049 122.5
      vertex -21.5 186.134 116.5
      vertex -21.691 186.049 116.5
    endloop
  endfacet
  facet normal 0.207943 0.978141 -0
    outer loop
      vertex -22.1045 186.005 116.5
      vertex -22.309 186.049 122.5
      vertex -22.1045 186.005 122.5
    endloop
  endfacet
  facet normal 0.207943 0.978141 0
    outer loop
      vertex -22.309 186.049 122.5
      vertex -22.1045 186.005 116.5
      vertex -22.309 186.049 116.5
    endloop
  endfacet
  facet normal 0.587781 0.80902 -0
    outer loop
      vertex -22.5 186.134 116.5
      vertex -22.6691 186.257 122.5
      vertex -22.5 186.134 122.5
    endloop
  endfacet
  facet normal 0.587781 0.80902 0
    outer loop
      vertex -22.6691 186.257 122.5
      vertex -22.5 186.134 116.5
      vertex -22.6691 186.257 116.5
    endloop
  endfacet
  facet normal 0.743155 0.669119 0
    outer loop
      vertex -22.6691 186.257 122.5
      vertex -22.809 186.412 116.5
      vertex -22.809 186.412 122.5
    endloop
  endfacet
  facet normal 0.743155 0.669119 0
    outer loop
      vertex -22.809 186.412 116.5
      vertex -22.6691 186.257 122.5
      vertex -22.6691 186.257 116.5
    endloop
  endfacet
  facet normal 0.951053 0.309028 0
    outer loop
      vertex -22.9135 186.593 122.5
      vertex -22.9781 186.792 116.5
      vertex -22.9781 186.792 122.5
    endloop
  endfacet
  facet normal 0.951053 0.309028 0
    outer loop
      vertex -22.9781 186.792 116.5
      vertex -22.9135 186.593 122.5
      vertex -22.9135 186.593 116.5
    endloop
  endfacet
  facet normal 0.994522 0.104527 0
    outer loop
      vertex -22.9781 186.792 122.5
      vertex -23 187 116.5
      vertex -23 187 122.5
    endloop
  endfacet
  facet normal 0.994522 0.104527 0
    outer loop
      vertex -23 187 116.5
      vertex -22.9781 186.792 122.5
      vertex -22.9781 186.792 116.5
    endloop
  endfacet
  facet normal 0.4067 0.913562 -0
    outer loop
      vertex -22.309 186.049 116.5
      vertex -22.5 186.134 122.5
      vertex -22.309 186.049 122.5
    endloop
  endfacet
  facet normal 0.4067 0.913562 0
    outer loop
      vertex -22.5 186.134 122.5
      vertex -22.309 186.049 116.5
      vertex -22.5 186.134 116.5
    endloop
  endfacet
endsolid OpenSCAD_Model
